<svg xmlns="http://www.w3.org/2000/svg" viewBox="0 0 512 512"><path fill="#4361ee" d="M464 256A208 208 0 1 1 48 256A208 208 0 1 1 464 256zM0 256A256 256 0 1 0 512 256A256 256 0 1 0 0 256zm270.6 93.3A.96.96 0 0 0 272 349.3V162.7a.96.96 0 0 0-1.4-.8L140.6 247.3a.96.96 0 0 0 0 1.6l130.2 85.6zm-23.9-13.6L166.9 256l79.8 52.3V191.7zm120.3-128.8C397.8 73.3 341.1 48 279.1 48H118.9c-18 13-33.2 29.1-44.6 47.4a9.9 9.9 0 0 0-1.6 5.5v256a9.9 9.9 0 0 0 1.6 5.5c24.1 39.1 66.8 64 115.4 64h160.2c62 0 118.6-25.3 159.1-66.9C453.5 341 359.9 256 256 256zm143.7 143.7c-40 40.5-95.7 65.6-159.1 66.6h-160.2C109.7 466.5 64 416.5 64 356V156c0-20.1 10.1-38.1 25.8-50.5C119.7 88.1 187.1 64 256 64h64.1c63.4 1 119.1 26.1 159.1 66.6s65.5 95.7 66.6 159.1v64.1c-1.1 63.4-26.1 119.1-66.6 159.1z"/></svg>